<svg id="Слой_1" data-name="Слой 1" xmlns="http://www.w3.org/2000/svg" viewBox="0 0 24 24"><defs><style>.cls-1,.cls-2{fill:#df1b12;}.cls-2,.cls-3{fill-rule:evenodd;}.cls-3{fill:#fff;}</style></defs><rect class="cls-1" y="0.02" width="24" height="24" rx="1.83"/><path class="cls-2" d="M11.88,23.64A11.46,11.46,0,1,0,.42,12.18,11.46,11.46,0,0,0,11.88,23.64Zm0,0"/><path class="cls-3" d="M6.93,7v3.9A2.72,2.72,0,0,1,9.06,9.84a2.66,2.66,0,0,1,1.15.25,1.85,1.85,0,0,1,.77.61,2.28,2.28,0,0,1,.36.83,7.92,7.92,0,0,1,.09,1.41v4.17H9.59V13.36a5.56,5.56,0,0,0-.11-1.42.93.93,0,0,0-.37-.48,1.14,1.14,0,0,0-.66-.18,1.51,1.51,0,0,0-.82.23,1.29,1.29,0,0,0-.53.69,4.13,4.13,0,0,0-.17,1.35v3.56H5.09V7H6.93"/><path class="cls-3" d="M14.19,7v3.9a2.72,2.72,0,0,1,2.13-1.07,2.66,2.66,0,0,1,1.15.25,1.85,1.85,0,0,1,.77.61,2.46,2.46,0,0,1,.36.83,7.92,7.92,0,0,1,.09,1.41v4.17H16.85V13.36a5.56,5.56,0,0,0-.11-1.42.93.93,0,0,0-.37-.48,1.14,1.14,0,0,0-.66-.18,1.51,1.51,0,0,0-.82.23,1.29,1.29,0,0,0-.53.69,4.13,4.13,0,0,0-.17,1.35v3.56H12.35V7h1.84"/></svg>